<svg width="312" height="331" viewBox="0 0 312 331" fill="none" xmlns="http://www.w3.org/2000/svg">
<path d="M16.0477 218.665C11.4497 221.069 8.79108 225.652 7.12279 230.46C5.22088 236.155 4.08568 241.989 3.71718 247.961C2.83082 259.49 5.11772 271.563 12.4813 280.645C19.4826 289.331 30.6338 294.364 41.5584 294.994C47.1804 295.293 52.823 294.727 58.2842 293.424C64.5971 292.035 70.8349 289.898 77.3722 289.674C80.2682 289.599 83.6222 289.802 86.2317 291.159C88.0638 292.27 89.6194 293.841 90.6749 295.785C94.0648 301.704 91.1733 308.254 87.7058 313.35C87.5144 313.585 91.9989 316.481 92.4776 315.893C95.5728 311.374 98.2521 305.925 96.4063 300.39C94.8378 295.475 90.2253 292.377 85.8051 290.122C80.714 287.612 75.0277 286.671 69.4064 287.451C63.1357 288.188 57.1215 290.411 50.883 291.468C41.0567 293.21 28.621 293.594 20.5986 286.521C11.8625 278.764 8.1915 266.83 8.22614 255.387C8.2745 248.367 9.19602 241.476 11.2144 234.798C12.8183 229.349 15.4869 223.793 20.8087 221.101C20.1056 220.524 19.4025 219.947 18.6036 219.487C18.0498 219.327 16.665 218.387 16.0477 218.665Z" fill="#DBAB71"/>
<path d="M86.8098 157.378C86.8098 157.378 75.8412 52.1766 76.6896 49.9344C77.538 47.6922 184.315 35.9358 189.042 38.784C193.769 41.6322 200.92 142.228 199.647 146.167C198.374 150.106 86.931 164.529 86.8098 157.378Z" fill="white"/>
<path d="M88.2642 157.015L87.9612 154.166C87.7188 151.621 87.4158 149.015 87.1734 146.47C86.8098 142.652 86.3856 138.895 86.022 135.077C85.5372 130.411 85.0524 125.806 84.6282 121.139C84.0828 116.049 83.598 110.959 83.1132 105.868C82.6284 100.778 82.083 95.6268 81.5982 90.3546C81.1134 85.5066 80.6892 80.6586 80.2044 75.8106C79.8408 71.6898 79.4166 67.569 79.1136 63.4482C78.8712 60.4182 78.6288 57.3882 78.3864 54.3582C78.2046 52.8432 78.144 51.3282 78.2046 49.8132C78.2046 49.7526 78.2046 49.4496 78.2046 49.5708C78.2046 49.5708 78.3258 49.389 78.2652 49.5102C78.2652 49.5102 78.447 49.4496 78.2046 49.5102C78.5682 49.389 77.9622 49.5708 78.2652 49.5102C78.6894 49.389 77.9622 49.5708 78.3258 49.5102L78.5682 49.4496C78.9318 49.3284 78.2046 49.5102 78.447 49.4496C78.6894 49.389 78.8106 49.3284 78.9924 49.3284L79.2954 49.2678C79.7196 49.1466 79.1136 49.3284 79.2954 49.2678L80.0226 49.1466C80.568 49.0254 81.1134 48.9648 81.6588 48.8436L82.6284 48.6618L83.1132 48.6012H83.0526L83.3556 48.5406L85.5978 48.177C89.2944 47.6316 92.9304 47.1468 96.627 46.662C101.172 46.056 105.778 45.5106 110.323 44.9652C115.413 44.3592 120.382 43.8138 125.473 43.2684C130.745 42.723 135.956 42.1776 141.289 41.6322C146.319 41.1474 151.409 40.6626 156.439 40.2384C160.863 39.8748 165.347 39.5112 169.832 39.2082C173.286 38.9658 176.861 38.784 180.134 38.6628C182.255 38.5416 184.376 38.6022 186.497 38.7234C186.921 38.7234 187.406 38.8446 187.769 39.0264C188.072 39.39 188.315 39.8142 188.436 40.2384C189.163 42.3594 189.709 44.4804 190.012 46.7226C190.678 50.298 191.163 53.8734 191.648 57.4488C192.254 61.9938 192.739 66.5994 193.223 71.1444C193.769 76.2954 194.254 81.4464 194.738 86.5974C195.223 91.9302 195.647 97.2024 196.072 102.535C196.496 107.565 196.859 112.655 197.162 117.685C197.465 122.109 197.708 126.472 197.95 130.896C198.132 134.168 198.253 137.441 198.374 140.713C198.496 142.471 198.496 144.228 198.374 145.985C198.314 146.41 198.314 146.47 198.011 146.652C198.132 146.591 197.89 146.713 198.011 146.652L197.829 146.713L197.647 146.773C197.708 146.773 197.405 146.894 197.647 146.773L197.162 146.955C197.041 147.016 196.92 147.016 197.162 146.955L196.859 147.076L196.253 147.258C196.011 147.319 196.617 147.137 196.193 147.258L195.829 147.379C195.587 147.44 195.344 147.5 195.041 147.561L194.678 147.682H194.557C193.951 147.803 193.345 147.985 192.739 148.106L191.708 148.349L191.224 148.47H191.102C191.345 148.409 191.042 148.47 190.981 148.47C187.466 149.197 183.952 149.803 180.376 150.409L180.013 150.47L179.77 150.53L179.104 150.652L177.528 150.894L174.256 151.379C171.953 151.742 169.65 152.045 167.347 152.409C162.378 153.136 157.409 153.742 152.44 154.348C147.349 154.954 142.259 155.56 137.168 156.106C132.199 156.651 127.169 157.136 122.2 157.56C117.716 157.924 113.231 158.287 108.747 158.469C105.172 158.651 101.596 158.772 98.0208 158.772C95.5968 158.833 93.2334 158.651 90.87 158.227C90.1428 158.105 88.3854 157.863 88.3854 156.833C88.3854 156.712 85.416 157.015 85.416 157.499C85.4766 158.59 87.4158 158.833 88.2036 159.014C90.6882 159.378 93.2334 159.56 95.718 159.56C99.4146 159.56 103.172 159.439 106.868 159.257C111.413 159.014 116.019 158.711 120.564 158.287C125.594 157.863 130.684 157.378 135.714 156.833C140.986 156.287 146.198 155.681 151.47 155.015C156.5 154.409 161.53 153.742 166.559 153.015C171.104 152.348 175.589 151.682 180.134 150.955C183.77 150.349 187.345 149.743 190.921 148.955C193.466 148.531 196.011 147.925 198.496 147.197C199.344 146.955 201.162 146.591 201.283 145.501C201.465 143.864 201.465 142.168 201.344 140.531C201.283 137.32 201.101 134.047 200.92 130.835C200.677 126.412 200.435 122.048 200.132 117.625C199.768 112.534 199.405 107.444 199.041 102.353C198.617 96.96 198.193 91.6272 197.708 86.2338C197.223 80.9616 196.738 75.75 196.193 70.5384C195.708 65.9328 195.163 61.3272 194.557 56.661C194.072 53.025 193.587 49.4496 192.92 45.8136C192.617 43.632 192.072 41.511 191.345 39.39C191.224 38.9052 190.921 38.481 190.557 38.178C190.072 37.9962 189.587 37.875 189.042 37.875C186.86 37.6932 184.679 37.6932 182.497 37.8144C178.922 37.9356 175.346 38.1174 171.771 38.3598C167.226 38.6628 162.681 39.0264 158.197 39.39C153.106 39.8142 148.016 40.299 142.865 40.7838C137.532 41.3292 132.26 41.8746 126.927 42.42C121.715 42.9654 116.504 43.5714 111.292 44.1774C106.687 44.7228 102.142 45.3288 97.536 45.9348C93.8394 46.4196 90.2034 46.9044 86.5674 47.4498C84.0222 47.874 81.477 48.2376 78.9318 48.783C78.0228 48.9648 77.1138 49.2072 76.2654 49.5102C75.9018 49.6314 75.5382 49.7526 75.417 50.1768C75.3564 50.6616 75.3564 51.1464 75.417 51.6312C75.417 52.5402 75.5382 53.5098 75.5382 54.4188C75.72 57.3882 75.9624 60.3576 76.2654 63.327C76.629 67.4478 76.9926 71.6292 77.3562 75.75C77.841 80.598 78.2652 85.446 78.75 90.3546C79.2348 95.5662 79.7802 100.778 80.265 105.989C80.8104 111.201 81.2952 116.352 81.8406 121.503C82.3254 126.169 82.8102 130.896 83.295 135.562L84.4464 147.076C84.6888 149.682 84.9918 152.227 85.2342 154.833C85.3554 155.742 85.416 156.651 85.5372 157.499C85.3554 157.924 88.3248 157.499 88.2642 157.015Z" fill="#DBAB71"/>
<path d="M92.8092 144.47C95.718 137.077 98.9904 129.866 102.748 122.836C106.262 116.231 110.201 109.807 115.474 104.535C120.746 99.2628 127.594 95.2632 135.047 94.536C140.077 93.9906 145.713 95.2632 148.743 99.3234C150.016 101.141 150.864 103.141 151.409 105.262C153.47 112.655 154.015 120.473 152.864 128.048C152.682 129.139 152.44 130.351 151.591 131.078C149.773 132.593 146.925 130.714 146.016 128.472C144.198 124.169 145.955 118.897 149.41 115.746C152.864 112.595 157.651 111.201 162.317 110.959C170.498 110.474 179.528 113.807 183.224 121.139" fill="white"/>
<path d="M93.9606 145.44C96.324 139.38 98.9904 133.502 101.899 127.684C104.626 122.291 107.535 116.897 111.11 111.989C117.473 103.262 127.23 95.2026 138.623 95.445C141.107 95.445 143.592 95.9904 145.774 97.1418C147.895 98.2932 148.925 100.717 149.652 102.959C151.591 108.959 152.379 115.322 152.137 121.624C152.076 123.321 151.894 124.957 151.712 126.593C151.531 127.805 151.409 129.26 150.44 130.108C150.076 130.472 149.531 130.714 149.046 130.714C148.804 130.714 148.561 130.714 148.319 130.654C148.198 130.654 147.713 130.411 147.773 130.472C148.076 130.654 147.773 130.472 147.652 130.29C147.47 130.108 147.349 129.866 147.228 129.623C146.925 129.017 146.743 128.411 146.622 127.745C145.531 122.594 148.743 117.503 153.046 114.898C157.53 112.171 163.226 111.565 168.317 112.171C172.559 112.716 177.286 114.292 180.134 117.685C180.861 118.534 181.467 119.503 182.012 120.533C182.376 121.139 182.921 121.564 183.527 121.927C183.709 122.048 184.497 122.473 184.194 121.927C181.709 117.079 176.861 113.443 171.832 111.625C166.681 109.747 161.045 109.504 155.712 110.898C150.197 112.352 145.168 116.231 144.137 122.17C143.713 124.715 144.077 127.502 145.774 129.502C147.107 131.138 150.44 133.987 152.621 132.169C153.773 131.199 153.833 129.502 154.015 128.169C154.258 126.472 154.379 124.775 154.439 123.139C154.561 119.685 154.379 116.231 153.833 112.777C153.409 109.444 152.621 106.171 151.349 103.02C150.076 100.172 147.955 97.8084 145.289 96.1722C140.441 93.0816 134.441 93.0816 129.109 94.5966C123.352 96.2934 118.201 99.687 113.959 103.929C109.353 108.535 105.778 114.11 102.626 119.806C99.2328 125.987 96.1422 132.29 93.4758 138.774C92.8092 140.41 92.1426 141.986 91.5366 143.622C91.3548 144.167 93.9 145.622 93.9606 145.44Z" fill="#DBAB71"/>
<path d="M163.105 92.3544C167.121 92.3544 170.377 89.0986 170.377 85.0824C170.377 81.0661 167.121 77.8104 163.105 77.8104C159.089 77.8104 155.833 81.0661 155.833 85.0824C155.833 89.0986 159.089 92.3544 163.105 92.3544Z" fill="white"/>
<path d="M168.256 87.9306C166.681 90.2334 163.954 91.4454 161.166 91.0212C159.833 90.8394 158.56 90.2334 157.53 89.2638C157.469 89.2032 157.348 89.082 157.288 89.0214C157.409 89.1426 157.106 88.779 157.288 88.9608C157.469 89.1426 157.227 88.779 157.288 88.9002C157.227 88.779 157.166 88.7184 157.166 88.5972C156.924 87.9912 156.803 87.3246 156.742 86.658C156.621 83.8098 158.136 81.204 160.621 79.8708C163.105 78.5982 166.135 78.9012 168.317 80.6586C168.499 80.8404 168.68 80.9616 168.862 81.1434C169.105 81.3858 168.923 81.204 168.862 81.1434C169.044 81.4464 168.862 81.0222 168.983 81.3858C169.286 82.0524 169.408 82.719 169.468 83.4462C169.589 85.0824 169.165 86.5974 168.256 87.9306C168.074 88.2336 168.68 89.082 168.862 89.3244C168.923 89.385 169.832 90.597 169.953 90.4152C172.013 87.3246 171.347 83.7492 169.347 80.8404C168.377 79.2648 166.923 77.9922 165.226 77.1438C161.53 75.5076 157.166 77.2044 155.53 80.901C155.167 81.7494 154.924 82.719 154.924 83.628C154.924 85.3854 155.409 87.0216 156.318 88.5366C157.227 90.2334 158.621 91.6878 160.318 92.6574C163.651 94.4148 167.771 93.4452 169.892 90.3546C170.135 90.0516 169.468 89.2032 169.286 88.9002C169.286 88.9002 168.377 87.6882 168.256 87.9306Z" fill="#DBAB71"/>
<path d="M209.828 71.205C212.312 71.0232 214.736 71.6898 216.797 73.0836C218.797 74.4168 220.312 76.4166 221.584 78.3558C224.493 82.7796 226.19 87.9306 226.493 93.2028C226.493 93.6876 227.462 94.2936 227.826 94.536C227.947 94.5966 228.856 95.2632 228.796 95.0208C228.19 85.5672 223.039 75.9924 214.797 71.0838C212.676 69.69 210.191 69.084 207.646 69.2052C207.343 69.2658 208.192 70.0536 208.252 70.1142C208.555 70.3566 209.343 71.205 209.828 71.205Z" fill="#000005"/>
<path d="M231.583 79.1436L232.25 96.7176C232.25 97.566 235.28 97.8084 235.28 97.1418L234.613 79.5678C234.553 78.7194 231.583 78.5376 231.583 79.1436Z" fill="#000005"/>
<path d="M47.6016 144.895C46.5108 133.017 45.8442 118.897 55.3584 109.928C57.2976 108.05 59.6004 106.656 62.1456 105.808C64.6908 104.959 67.6602 104.717 69.7812 106.656C71.3568 108.11 72.8112 111.262 70.9326 113.14C70.7508 113.322 70.569 113.443 70.3266 113.564C70.2054 113.625 69.66 113.686 69.9024 113.746C69.4782 113.625 68.8722 112.898 68.5086 112.534C67.6602 111.504 67.1148 110.353 66.7512 109.08C64.8726 102.596 69.1146 96.5964 73.9626 92.7786C74.4474 92.3544 71.9022 91.1424 71.2356 91.6272C66.3876 95.5056 62.2062 101.263 63.6606 107.807C64.3878 110.959 66.5088 113.807 69.7206 114.716C71.175 115.14 72.9324 115.14 73.902 113.867C74.6292 112.777 74.811 111.504 74.4474 110.292C73.6596 107.262 70.6902 105.262 67.7814 104.414C64.2666 103.444 60.5094 103.868 57.2976 105.565C51.8436 108.232 48.0258 113.564 46.026 119.2C43.1778 127.26 43.905 136.047 44.6928 144.349C44.6928 145.016 47.6016 145.743 47.6016 144.895Z" fill="#000005"/>
<path d="M128.866 188.769C128.866 188.769 180.861 96.657 182.921 95.3238C184.982 93.9906 278.73 146.288 280.912 151.318C283.093 156.348 230.674 242.521 227.341 245.006C224.008 247.49 124.867 194.647 128.866 188.769Z" fill="#000005"/>
<path d="M130.139 189.072L131.533 186.587L135.35 179.861L140.986 169.922L147.895 157.742C150.44 153.257 152.985 148.834 155.53 144.349C158.075 139.865 160.681 135.38 163.226 130.896C165.65 126.715 168.074 122.473 170.498 118.291C172.559 114.716 174.68 111.08 176.801 107.504C178.316 104.899 179.891 102.293 181.467 99.7476C182.255 98.475 183.103 97.2024 183.952 95.9298C184.073 95.6874 183.649 96.2328 183.891 96.051C183.588 96.2328 183.285 96.4146 182.982 96.4752C182.982 96.4752 182.437 96.5358 182.437 96.4752L182.679 96.5358L183.406 96.7782C183.588 96.8388 183.043 96.657 183.346 96.7782L183.588 96.8994L184.133 97.1418C186.376 98.1114 188.497 99.2022 190.678 100.293C193.951 101.99 197.223 103.687 200.495 105.383C204.556 107.565 208.616 109.747 212.676 111.928C217.16 114.413 221.645 116.897 226.129 119.382C230.735 121.988 235.34 124.594 239.946 127.199C244.37 129.745 248.733 132.29 253.096 134.835C256.975 137.138 260.853 139.441 264.671 141.804C267.64 143.622 270.67 145.501 273.579 147.44C274.67 148.167 275.7 148.894 276.73 149.621L277.397 150.106L277.7 150.288C277.882 150.409 277.518 150.167 277.76 150.349C278.003 150.53 278.366 150.833 278.669 151.076C278.912 151.258 279.094 151.439 279.336 151.682C279.397 151.742 279.457 151.864 279.518 151.924C279.7 152.106 279.397 151.682 279.518 151.924C279.639 152.167 279.518 151.803 279.518 151.864C279.518 151.985 279.518 152.106 279.518 152.167C279.518 152.288 279.518 152.409 279.457 152.53C279.518 152.106 279.457 152.591 279.397 152.773C278.791 154.894 278.003 156.954 276.973 158.893C275.397 162.287 273.943 165.014 272.185 168.347C270.004 172.407 267.761 176.467 265.519 180.467C262.974 185.012 260.429 189.496 257.762 193.92C255.096 198.526 252.369 203.071 249.642 207.676C247.036 212.039 244.37 216.403 241.764 220.705C239.461 224.402 237.158 228.159 234.795 231.856C233.038 234.643 231.28 237.37 229.462 240.097C228.856 241.006 228.25 241.915 227.584 242.824C227.341 243.127 227.099 243.491 226.856 243.794L226.553 244.157L226.432 244.279C226.25 244.521 226.735 243.976 226.493 244.157L226.311 244.339C226.129 244.582 226.553 244.218 226.614 244.157C226.675 244.097 227.281 243.976 226.978 244.036C227.402 243.976 227.341 244.036 227.038 244.036C227.462 244.097 226.735 244.036 227.038 244.036L226.614 243.976C226.25 243.915 225.947 243.794 225.584 243.673C225.22 243.551 224.735 243.37 224.311 243.248L223.948 243.127C223.705 243.067 224.069 243.188 224.008 243.127L223.766 243.006L222.978 242.703C221.705 242.218 220.493 241.673 219.221 241.127C215.948 239.673 212.676 238.097 209.464 236.522C205.465 234.583 201.465 232.522 197.526 230.522C193.102 228.22 188.678 225.917 184.255 223.553C179.71 221.069 175.104 218.584 170.559 216.039C166.196 213.615 161.833 211.13 157.53 208.646C153.652 206.343 149.773 204.04 146.016 201.616C142.925 199.677 139.835 197.617 136.865 195.496C136.259 195.071 135.653 194.647 135.108 194.162L134.926 194.041L134.502 193.738L133.714 193.132C132.866 192.466 132.078 191.738 131.351 191.011C131.108 190.769 130.805 190.466 130.563 190.163L130.321 189.799C130.381 189.92 130.139 189.557 130.321 189.799C130.26 189.678 130.26 189.678 130.26 189.617C130.26 189.557 130.139 189.436 130.139 189.314C130.139 189.193 130.139 189.193 130.078 189.133C130.018 189.011 130.139 189.436 130.078 189.254C130.018 189.072 130.26 188.708 130.139 189.072C130.26 188.708 130.078 189.133 130.139 189.072C130.442 188.708 130.381 188.163 129.957 187.86C129.836 187.799 129.715 187.739 129.593 187.678C128.806 187.496 128.078 187.799 127.594 188.466C126.685 189.799 127.957 191.254 128.866 192.223C130.624 193.981 132.623 195.617 134.684 197.011C137.653 199.192 140.744 201.192 143.834 203.131C147.652 205.555 151.591 207.919 155.47 210.282C159.833 212.888 164.196 215.372 168.62 217.857C173.225 220.463 177.77 222.947 182.437 225.432C186.86 227.856 191.345 230.219 195.89 232.522C199.889 234.583 203.889 236.582 207.949 238.582C211.161 240.158 214.433 241.733 217.706 243.127C219.887 244.157 222.13 245.006 224.432 245.794C225.887 246.218 227.462 246.581 228.614 245.369C229.765 244.036 230.856 242.642 231.765 241.127C233.583 238.461 235.34 235.673 237.098 232.946C239.461 229.25 241.764 225.553 244.067 221.796C246.733 217.433 249.4 213.07 252.005 208.646C254.793 204.04 257.52 199.374 260.247 194.708C262.913 190.223 265.459 185.678 268.064 181.133C270.367 177.073 272.609 172.952 274.791 168.832C276.548 165.559 278.245 162.226 279.821 158.833C280.851 156.833 281.639 154.772 282.305 152.651C282.548 152.045 282.548 151.318 282.366 150.712C282.124 150.227 281.76 149.803 281.336 149.44C279.639 147.985 277.821 146.652 275.942 145.501C273.034 143.561 270.064 141.683 267.095 139.865C263.216 137.501 259.399 135.138 255.46 132.896C251.036 130.29 246.612 127.684 242.128 125.139C237.522 122.473 232.856 119.867 228.19 117.261C223.645 114.716 219.1 112.231 214.555 109.686C210.494 107.444 206.374 105.262 202.313 103.081C199.041 101.323 195.769 99.6264 192.496 97.9902C190.375 96.8994 188.194 95.8086 186.012 94.8996C184.679 94.3542 183.043 93.5664 181.77 94.839C180.74 95.8692 180.013 97.3842 179.225 98.5962C177.649 101.141 176.134 103.687 174.619 106.292C172.498 109.868 170.438 113.443 168.317 117.019C165.893 121.261 163.408 125.442 160.984 129.684C158.378 134.229 155.773 138.774 153.167 143.38C150.561 147.985 148.016 152.47 145.471 156.893C143.168 161.014 140.804 165.074 138.502 169.195C136.623 172.528 134.684 175.922 132.805 179.255L128.987 185.981L127.654 188.405C126.685 190.042 129.472 190.223 130.139 189.072Z" fill="#000005"/>
<path d="M141.956 183.012C147.228 179.558 152.621 176.346 158.257 173.377C163.651 170.528 169.165 167.801 174.922 165.862C180.437 163.984 186.254 162.953 192.072 163.378C197.223 163.741 202.738 165.377 206.737 168.832C208.616 170.347 210.01 172.286 210.858 174.528C211.767 177.255 211.282 179.921 210.373 182.588C208.555 187.921 205.889 192.95 202.435 197.435C201.586 198.586 200.677 199.677 199.708 200.707C198.98 201.556 198.071 202.768 197.041 203.252C196.859 203.313 196.617 203.374 196.435 203.374C196.678 203.374 196.072 203.192 196.253 203.313C195.95 203.131 195.708 202.889 195.526 202.525C195.163 201.798 194.981 200.889 195.163 200.041C195.466 198.101 196.92 196.041 198.617 194.829C200.435 193.435 202.677 192.647 204.919 192.526C210.373 192.223 215.827 194.95 219.827 198.586C223.402 201.859 226.432 206.282 226.856 211.252C226.978 212.403 226.978 213.554 226.796 214.706C226.614 215.494 227.038 216.342 227.887 216.584C228.674 216.827 229.523 216.342 229.765 215.554C230.674 209.676 228.553 204.04 224.857 199.495C221.099 194.829 215.464 191.132 209.525 189.92C203.768 188.769 197.526 190.405 194.011 195.374C192.496 197.495 191.648 200.222 192.375 202.768C193.163 205.495 195.769 207.373 198.556 205.979C199.889 205.313 200.98 203.98 201.95 202.889C202.919 201.798 204.01 200.465 204.98 199.192C206.858 196.708 208.555 194.041 210.01 191.193C211.525 188.345 212.737 185.375 213.646 182.285C214.555 179.255 214.676 176.104 213.464 173.134C211.222 167.62 205.889 164.044 200.435 162.166C194.435 160.105 187.83 159.984 181.649 161.135C175.043 162.347 168.741 164.953 162.742 167.862C156.56 170.831 150.561 174.164 144.743 177.8C143.289 178.709 141.835 179.618 140.38 180.588C138.865 181.497 140.38 184.103 141.956 183.012Z" fill="white"/>
<path d="M234.31 180.164C232.129 181.073 229.644 180.224 228.371 178.285C226.796 176.043 226.735 173.074 228.19 170.771C228.856 169.68 229.886 168.771 231.038 168.226C232.068 167.741 233.28 167.559 234.431 167.741C236.795 168.226 238.492 170.771 238.734 173.255C238.976 176.225 237.158 179.073 234.31 180.164C233.644 180.406 234.25 181.012 234.613 181.194C235.219 181.558 236.007 181.679 236.674 181.497C239.825 180.285 241.825 177.255 241.703 173.922C241.522 170.286 238.673 167.498 235.34 166.468C232.007 165.438 228.068 166.226 225.826 169.074C223.766 171.74 223.705 175.498 225.705 178.225C228.068 181.558 232.856 182.891 236.674 181.497C237.34 181.255 236.734 180.649 236.371 180.467C235.765 180.103 234.977 179.982 234.31 180.164Z" fill="white"/>
<path d="M96.6876 264.337C96.6876 264.337 28.5732 183.436 28.0278 181.073C27.4824 178.709 109.292 109.08 114.746 108.777C120.2 108.474 182.679 187.739 183.83 191.738C184.982 195.738 100.869 270.155 96.6876 264.337Z" fill="#DBAB71"/>
<path d="M98.142 264.095L91.2942 255.974C85.8402 249.49 80.3862 243.006 74.9322 236.461C68.3268 228.583 61.7214 220.645 55.1766 212.767C49.4196 205.798 43.6626 198.889 37.9662 191.86C36.0876 189.496 34.209 187.193 32.3304 184.83C31.3608 183.679 30.4518 182.527 29.664 181.255C29.4822 180.952 29.5428 180.891 29.664 180.709C29.967 180.224 30.3306 179.8 30.7548 179.437C32.391 177.74 34.0878 176.104 35.7846 174.528C41.784 168.953 47.9652 163.559 54.1464 158.227C62.085 151.379 70.0236 144.592 78.0228 137.926C85.416 131.805 92.8698 125.684 100.384 119.806C103.232 117.625 106.081 115.382 108.929 113.261C110.686 111.928 112.504 110.716 114.443 109.565C114.746 109.383 114.989 109.262 115.292 109.141C115.595 109.019 115.11 109.201 115.413 109.08C115.777 108.959 114.928 109.141 115.049 109.141C114.625 109.201 114.201 109.201 113.777 109.141C113.959 109.141 113.534 109.141 113.656 109.141C113.777 109.141 114.019 109.322 113.837 109.201C114.08 109.322 114.383 109.504 114.625 109.686C116.383 111.019 118.019 112.474 119.534 114.11C125.291 119.988 130.684 126.29 135.956 132.593C142.744 140.592 149.41 148.712 155.894 156.954C161.772 164.347 167.59 171.801 173.347 179.255C175.346 181.861 177.286 184.527 179.225 187.193C180.316 188.527 181.285 189.981 182.134 191.496C182.315 191.738 182.315 192.041 182.194 192.284C182.194 192.344 182.134 192.405 182.073 192.466C182.012 192.587 181.952 192.708 181.831 192.829C181.649 193.132 181.467 193.375 181.225 193.678C179.77 195.496 178.255 197.192 176.619 198.829C171.104 204.525 165.226 209.918 159.348 215.312C151.834 222.16 144.198 228.826 136.441 235.37C129.109 241.552 121.655 247.672 114.019 253.49C111.11 255.732 108.141 257.914 105.05 259.974C102.99 261.428 100.808 262.701 98.5662 263.792L98.142 264.095C97.7784 264.155 98.2026 264.034 98.0208 264.095L97.7784 264.155L97.2936 264.277C97.7784 264.155 97.4754 264.216 97.3542 264.277C97.0512 264.337 97.7178 264.216 97.4754 264.277C97.233 264.337 97.8996 264.216 97.6572 264.277C97.4148 264.337 98.142 264.277 97.9602 264.277C97.7784 264.277 97.7178 264.277 98.2026 264.277C98.0814 264.277 98.445 264.277 98.445 264.277C98.2632 264.277 98.5056 264.337 98.3844 264.216C98.2026 264.277 98.142 264.216 98.142 264.095C97.839 263.792 96.627 264.034 96.2634 264.095C96.0816 264.095 94.9908 264.277 95.2332 264.64C95.718 265.246 96.9906 265.125 97.6572 265.064C98.6874 264.943 99.7176 264.701 100.687 264.337C102.869 263.368 104.929 262.216 106.868 260.822C109.898 258.823 112.868 256.702 115.777 254.52C119.413 251.793 122.927 249.005 126.442 246.157C130.381 243.006 134.26 239.794 138.077 236.522C142.077 233.128 146.077 229.674 150.016 226.22C153.833 222.887 157.591 219.554 161.348 216.16C164.741 213.07 168.074 209.979 171.407 206.888C174.074 204.404 176.68 201.859 179.225 199.253C180.922 197.556 182.558 195.799 184.073 193.92C184.558 193.314 185.588 192.284 185.224 191.435C184.436 189.92 183.467 188.527 182.437 187.193C180.558 184.588 178.619 181.982 176.68 179.376C174.013 175.861 171.347 172.407 168.62 168.892C165.469 164.832 162.317 160.832 159.106 156.833C155.773 152.651 152.379 148.47 148.985 144.289C145.652 140.228 142.319 136.168 138.926 132.169C135.956 128.593 132.926 125.078 129.836 121.624C127.412 118.897 124.988 116.17 122.382 113.564C120.928 111.928 119.231 110.413 117.473 109.141C115.958 108.11 114.019 108.353 112.383 109.141C110.504 110.171 108.747 111.322 107.05 112.595C104.263 114.595 101.475 116.716 98.748 118.837C95.2332 121.564 91.7184 124.351 88.2642 127.199C84.2646 130.411 80.3256 133.684 76.3866 136.956C72.2658 140.35 68.145 143.804 64.0848 147.258C60.0852 150.652 56.1462 154.045 52.2072 157.439C48.6924 160.469 45.117 163.559 41.6022 166.711C38.8146 169.195 36.027 171.68 33.2394 174.225C31.4214 175.922 29.6034 177.558 27.9066 179.376C27.4824 179.8 26.2704 180.83 26.5128 181.497C26.7552 181.982 27.0582 182.406 27.4218 182.77C27.9672 183.497 28.5126 184.224 29.1186 184.951C30.9366 187.315 32.8152 189.617 34.6938 191.981C37.2996 195.193 39.9054 198.404 42.5718 201.616C45.6624 205.373 48.753 209.131 51.9042 212.888C55.2372 216.948 58.6308 220.948 61.9638 225.008C65.2968 229.068 68.6298 233.007 71.9628 236.946C74.9928 240.582 78.0228 244.157 81.0528 247.793C83.5374 250.763 86.022 253.672 88.5066 256.641L93.4758 262.58C94.0818 263.246 94.6272 263.974 95.2332 264.64C95.5362 265.004 96.6876 264.761 97.1118 264.701C97.2936 264.58 98.445 264.458 98.142 264.095Z" fill="#DBAB71"/>
<path d="M95.8998 249.914C94.4454 243.551 93.294 237.067 92.4456 230.583C91.6578 224.22 91.0518 217.796 91.4154 211.373C91.779 205.737 92.991 200.162 95.5362 195.132C97.8996 190.526 101.414 186.284 106.141 183.982C108.323 182.83 110.868 182.345 113.292 182.648C116.08 183.073 118.382 184.891 120.443 186.648C124.685 190.345 128.26 194.647 131.169 199.435C131.896 200.647 132.563 201.859 133.229 203.131C133.532 203.677 133.775 204.283 134.017 204.949C134.138 205.252 134.138 205.495 134.138 205.798C134.138 205.919 134.078 205.979 134.017 206.101C133.654 206.585 132.987 206.707 132.199 206.646C131.29 206.585 130.442 206.222 129.715 205.616C126.139 202.768 125.594 197.495 127.109 193.435C128.866 188.648 133.169 184.891 137.532 182.588C141.895 180.285 147.107 179.073 151.955 180.285C153.106 180.588 154.258 181.073 155.348 181.618C157.045 182.588 158.56 179.921 156.863 179.012C146.319 173.195 132.32 179.315 126.079 188.769C122.988 193.496 122.14 199.677 125.048 204.646C126.321 206.828 128.442 208.949 130.987 209.434C133.411 209.918 136.502 209.191 137.047 206.404C137.411 204.646 136.623 203.071 135.835 201.556C135.169 200.162 134.381 198.829 133.593 197.556C131.896 194.829 130.018 192.223 127.897 189.799C125.897 187.496 123.655 185.315 121.291 183.376C118.746 181.315 116.08 179.74 112.747 179.497C106.687 179.012 100.93 182.83 97.1118 187.254C93.294 191.86 90.6276 197.314 89.4156 203.192C87.9006 210.04 88.0218 217.13 88.6278 224.099C89.2944 231.25 90.3246 238.4 91.7184 245.491C92.082 247.248 92.4456 249.005 92.8092 250.702C93.3546 252.581 96.324 251.793 95.8998 249.914Z" fill="white"/>
<path d="M125.109 161.56C125.048 164.105 123.473 166.347 121.109 167.256C118.807 168.104 116.261 167.438 114.686 165.499C112.686 162.832 113.171 159.014 115.837 157.015C117.17 155.984 118.867 155.56 120.503 155.863C123.23 156.409 125.17 158.833 125.109 161.56C125.109 163.196 128.018 163.681 128.018 161.863C127.957 158.227 125.654 154.954 122.2 153.682C118.746 152.409 114.868 153.379 112.504 156.227C110.262 159.014 110.02 162.893 111.838 165.983C113.777 169.135 117.413 170.831 121.049 170.225C125.109 169.498 128.018 165.983 128.018 161.863C128.018 160.226 125.109 159.681 125.109 161.56Z" fill="white"/>
<path d="M298.21 234.745C298.555 234.736 299.015 235.354 299.313 235.936C299.864 236.917 300.215 238.026 300.403 239.099C300.878 241.952 301.19 244.769 301.239 247.614C301.626 253.538 301.243 259.463 300.027 265.287C297.942 275.382 292.878 284.639 284.64 290.868C281.02 293.665 276.831 295.563 272.417 296.551C270.242 297.095 267.995 297.194 265.721 297.029C263.711 296.837 261.565 296.1 260.926 293.983C260.485 292.51 260.87 290.021 262.746 289.667C263.009 289.64 263.009 289.64 263.316 289.795C263.624 289.949 263.914 290.186 264.103 290.486C264.872 291.258 265.423 292.24 265.792 293.267C266.494 295.485 266.571 297.82 266.16 300.046C265.729 302.354 264.892 304.571 263.746 306.633C257.892 316.744 245.205 319.146 234.693 316.024C233.978 315.778 232.637 315.65 232.355 316.531C232.072 317.413 233.266 318.195 233.9 318.422C245.046 321.772 258.791 320.379 266.167 310.351C269.364 306 271.251 300.24 270.165 294.76C269.572 292.051 267.973 289.633 265.666 288.087C263.422 286.642 260.089 286.24 258.074 288.365C256.394 290.136 256.525 292.999 257.608 295.044C259.116 297.871 262.492 299.227 265.562 299.655C271.033 300.448 276.897 299.097 281.866 296.774C292.303 291.808 299.642 281.943 302.942 271.004C304.83 264.472 305.658 257.702 305.472 250.878C305.388 247.425 305.141 243.935 304.631 240.473C304.265 237.901 303.364 235.038 301.257 233.365C300.018 232.401 298.506 231.892 296.966 231.891C296.114 231.872 295.316 232.381 295.704 233.326C296.091 234.271 297.359 234.726 298.21 234.745Z" fill="#DBAB71"/>
</svg>
