<svg width="49" height="40" viewBox="0 0 49 40" fill="none" xmlns="http://www.w3.org/2000/svg">
<path d="M29.9538 1.00229L47.8177 12.9922L33.1603 39.2215L15.2963 27.2316L29.9538 1.00229Z" fill="white"/>
<path d="M15.5011 27.1616L17.2807 28.3529L21.5431 31.2177L26.716 34.6942L31.172 37.6725C31.8893 38.1553 32.6355 38.608 33.3379 39.1213L33.3655 39.1375L32.8193 39.0762L33.2178 38.377L34.2813 36.4762L35.862 33.6479L37.782 30.2268L39.8942 26.4558L42.0213 22.6544L44.0012 19.096L45.6852 16.0852L46.8963 13.9261L47.2658 13.2569C47.3254 13.135 47.3849 13.0131 47.458 12.9071C47.4725 12.892 47.4729 12.8766 47.4874 12.8616L47.6082 13.0656L45.8286 11.8744L41.5662 9.00947L36.3934 5.53298L31.9378 2.53929C31.2205 2.05648 30.4743 1.60375 29.7719 1.09046L29.7443 1.07427L30.2905 1.13555L29.9061 1.8352L28.8425 3.73592L27.2619 6.56423L25.3419 9.98536L23.2292 13.7718L21.1022 17.5732L19.1226 21.1162L17.4531 24.1119L16.242 26.271C16.0502 26.6054 15.872 26.9556 15.6662 27.2897C15.6518 27.3047 15.6513 27.3201 15.6369 27.3352C15.5187 27.5481 14.8805 27.2527 14.9839 27.0703L15.3683 26.3706L16.4318 24.4699L18.0125 21.6416L19.9325 18.2204L22.0451 14.4341L24.1722 10.6326L26.1517 7.08962L27.8353 4.09429L29.0323 1.93478C29.2241 1.60038 29.4023 1.25017 29.6081 0.916151L29.6375 0.870638C29.7408 0.688203 30.0594 0.851321 30.1837 0.931918L31.9633 2.12314L36.1976 4.98725L41.3704 8.46375L45.826 11.4574C46.5433 11.9402 47.2891 12.4084 47.9919 12.9063L48.0196 12.9225C48.0608 12.9545 48.1706 13.0501 48.1404 13.1265L47.756 13.8261L46.6924 15.7268L45.1118 18.5552L43.1918 21.9763L41.0792 25.7627L38.9521 29.5641L36.9725 33.1071L35.3026 36.1183L34.0915 38.2774C33.8997 38.6118 33.7215 38.962 33.5157 39.296C33.5012 39.3111 33.5008 39.3265 33.4864 39.3415C33.383 39.524 33.0644 39.3608 32.9402 39.2802L31.1606 38.089L26.8982 35.2241L21.7253 31.7476L17.2697 28.754C16.5525 28.2711 15.8067 27.803 15.1039 27.3051L15.0762 27.2889C14.9937 27.2249 14.8852 27.083 15.0272 27.0251C15.1693 26.9673 15.391 27.0814 15.5011 27.1616Z" fill="#000005"/>
<path d="M30.2558 4.65689L44.6881 14.3435L34.2659 32.994L19.8336 23.3074L30.2558 4.65689Z" fill="#B8956A"/>
<path d="M19.9802 23.1467L21.4288 24.1127L24.8637 26.4146L29.0296 29.2151L32.63 31.6295L33.8161 32.434C33.9952 32.5624 34.2028 32.6761 34.3819 32.8045L34.4096 32.8207L33.9174 32.8381L34.9516 30.9829L37.4478 26.5277L40.4748 21.1608L43.0747 16.5077L43.9316 14.9719C44.0507 14.7281 44.1838 14.4848 44.3309 14.2418C44.3313 14.2263 44.3454 14.2267 44.3458 14.2113L44.5058 14.5244L43.0572 13.5584L39.6363 11.257L35.4704 8.45649L31.87 6.04203L30.6839 5.2376C30.4907 5.1088 30.2971 4.99542 30.118 4.867L30.0904 4.85081L30.5825 4.83341L29.5483 6.68861L27.0521 11.1438L24.0248 16.5262L21.4248 21.1793C21.0106 21.9398 20.5969 22.685 20.1687 23.4452L20.1538 23.4757C20.0653 23.6277 19.8833 23.6072 19.7446 23.5417C19.6612 23.5085 19.4132 23.3319 19.5016 23.1799L20.5358 21.3247L23.0461 16.8699L26.0598 11.4717L28.6457 6.81827C29.0735 6.07349 29.4737 5.31251 29.9019 4.55231L29.9168 4.52184C30.0201 4.3394 30.2711 4.40803 30.4089 4.50444L31.8575 5.47045L35.2925 7.77231L39.4583 10.5728L43.0588 12.9872C43.6382 13.3736 44.2317 13.7604 44.8107 14.1623L44.8384 14.1785C44.9073 14.2267 45.0719 14.3701 44.9984 14.4916L43.9642 16.3468L41.468 20.802L38.4683 26.2006L35.8683 30.8537C35.4541 31.6143 35.0399 32.3748 34.6121 33.1196C34.6117 33.1351 34.5977 33.1347 34.5972 33.1501C34.4939 33.3325 34.2429 33.2639 34.1051 33.1675L32.6565 32.2015L29.2215 29.8996L25.0557 27.0992L21.4552 24.6847C20.8758 24.2983 20.2823 23.9115 19.7033 23.5097L19.6756 23.4935C19.565 23.4287 19.4293 23.2551 19.545 23.1348C19.6607 23.0145 19.8836 23.0823 19.9802 23.1467Z" fill="#B8956A"/>
<path d="M25.832 16.7146C25.832 16.7146 32.266 24.4096 35.2593 23.8586C35.2593 23.8586 38.7718 17.1772 38.3295 15.3742C37.5326 12.1565 33.4954 10.3013 31.8664 11.3066C28.5232 13.3455 25.832 16.7146 25.832 16.7146Z" fill="white"/>
<path d="M26.1433 16.6306L26.1841 16.678C26.2386 16.7412 26.1297 16.6148 26.1841 16.678L26.2658 16.7729C26.4292 16.9626 26.5926 17.1524 26.7564 17.3267C27.3018 17.9283 27.8477 18.5145 28.4076 19.101C29.8155 20.5291 31.3211 21.9753 33.008 22.9633C33.2151 23.0925 33.4368 23.2066 33.6448 23.3049C33.7282 23.3381 33.7695 23.3701 33.8945 23.4198C33.992 23.4534 34.0894 23.4869 34.2008 23.5209L34.3404 23.5556L34.4101 23.5729L34.4518 23.5895C34.3961 23.5725 34.4799 23.5903 34.4799 23.5903L34.5637 23.608L34.7037 23.6273L34.844 23.6311C34.9423 23.6338 34.7879 23.6296 34.9002 23.6327C34.9423 23.6338 34.9844 23.635 35.0269 23.6207C35.0695 23.6064 35.1962 23.5945 35.0971 23.6226L34.9249 23.7568C35.4441 22.7521 35.9356 21.7312 36.3996 20.6941C36.7882 19.8401 37.1492 18.97 37.4545 18.0829C37.6981 17.3948 37.9434 16.6451 37.9918 15.9053C37.9935 15.8436 37.9956 15.7665 37.9973 15.7048C37.9981 15.6739 37.9989 15.6431 37.9998 15.6122C38.0019 15.5351 37.9994 15.6276 38.0015 15.5505C37.9644 15.3642 37.9274 15.1779 37.8619 15.0063C37.6925 14.5231 37.4521 14.0688 37.1678 13.675C36.5717 12.8713 35.8166 12.233 34.9568 11.8235C34.5688 11.6276 34.1655 11.4776 33.7465 11.389C33.4117 11.3026 33.0612 11.2776 32.723 11.3146C32.6809 11.3135 32.6384 11.3277 32.5962 11.3266C32.5541 11.3254 32.6669 11.3131 32.5822 11.3262L32.5256 11.3401C32.441 11.3532 32.3699 11.3821 32.2989 11.4111C32.2419 11.4404 32.3134 11.396 32.2419 11.4404L32.1424 11.484C32.0139 11.5576 31.8855 11.6313 31.7706 11.7208C31.1986 12.0911 30.6397 12.4926 30.108 12.9258C28.6858 14.0756 27.372 15.3674 26.1944 16.8172L26.1361 16.8928C25.9468 17.1347 25.3074 16.8856 25.555 16.5681C26.2529 15.7072 26.9912 14.9092 27.7844 14.159C28.5351 13.4231 29.3262 12.75 30.1581 12.1243C30.617 11.7818 31.0755 11.4547 31.5613 11.1593C31.8326 10.9969 32.1308 10.8815 32.4269 10.8433C33.1036 10.7538 33.7898 10.8343 34.4436 11.0684C35.1953 11.3206 35.9011 11.7104 36.5337 12.2064C37.1804 12.7027 37.7386 13.351 38.1539 14.088C38.4616 14.6522 38.7386 15.3082 38.7064 15.9712C38.6478 16.5717 38.519 17.1703 38.3209 17.7361C38.0905 18.4554 37.8328 19.1431 37.5471 19.83C37.05 21.0515 36.4841 22.2248 35.904 23.3977L35.6812 23.8393C35.651 23.9157 35.6072 23.9762 35.563 24.0522C35.3895 24.2327 34.9135 24.1734 34.6893 24.1518C34.423 24.1291 34.158 24.0601 33.9074 23.976C32.6546 23.5557 31.5399 22.7069 30.5095 21.8604C29.411 20.9349 28.3703 19.9492 27.3735 18.9029C26.7863 18.2847 26.1996 17.6511 25.6418 16.9874L25.5193 16.8451C25.3967 16.7027 25.5694 16.5531 25.683 16.5099C25.8676 16.4377 26.0348 16.4886 26.1433 16.6306Z" fill="#000005"/>
<path d="M30.6092 13.6034C31.9731 14.073 33.6581 14.6132 34.9754 13.7075C35.1472 13.5887 35.7271 13.9597 35.5693 14.0789C34.1087 15.0887 32.1863 14.4957 30.6833 13.9759C30.5718 13.942 30.3357 13.8429 30.3259 13.6882C30.3161 13.5336 30.5395 13.586 30.6092 13.6034Z" fill="#000005"/>
<path d="M30.5165 12.8906C31.7641 12.9866 33.0824 13.069 34.224 12.421C34.3801 12.3635 34.5486 12.3681 34.7009 12.4495C34.7843 12.4826 34.9361 12.5794 34.8077 12.6531C33.5376 13.3748 32.0513 13.2723 30.6769 13.1884C30.5786 13.1857 30.3123 13.1629 30.26 13.0226C30.2076 12.8822 30.4607 12.8737 30.5165 12.8906Z" fill="#000005"/>
<path d="M34.7107 22.346C36.635 21.843 37.3934 16.7226 37.3934 16.7226C36.8195 16.1356 36.156 14.7125 36.156 14.7125C35.2198 17.0953 32.5784 16.0812 32.5784 16.0812C32.7878 14.5894 31.3113 14.1321 30.7168 15.32C30.1223 16.508 31.0409 17.336 31.0409 17.336C31.0409 17.336 28.8808 19.7779 28.712 20.2982C28.712 20.2982 29.6278 22.7626 31.647 21.8761C31.6329 21.8758 33.4091 22.6809 34.7107 22.346Z" fill="white"/>
<path d="M34.4508 22.0919C35.3283 21.8535 35.8347 20.8021 36.1664 19.9775C36.5282 19.0765 36.7931 18.1266 36.9737 17.1743C37.0077 16.9591 37.0553 16.7597 37.0893 16.5445L37.2369 16.7955C36.6774 16.1935 36.263 15.4257 35.8902 14.6744L36.4445 14.9521C36.1563 15.7315 35.5366 16.3012 34.7871 16.4814C34.2077 16.6045 33.6177 16.6038 33.06 16.4495C32.9205 16.4148 32.781 16.3801 32.6559 16.3304C32.5444 16.2965 32.2547 16.1033 32.2734 15.9339C32.3099 15.6262 32.2933 15.2089 32.1027 14.9875C32.1439 15.0195 32.0891 14.9717 32.0754 14.9559C32.1163 15.0033 32.0474 14.9551 32.1031 14.9721C32.0474 14.9551 32.1312 14.9728 32.0754 14.9559C32.0478 14.9397 32.0337 14.9393 32.0057 14.9385C31.8938 14.92 31.7675 14.9166 31.6539 14.9598C30.9593 15.1878 30.651 16.1828 30.9272 16.8697C30.9532 16.9476 30.9936 17.0105 31.0341 17.0733C31.0609 17.1204 31.0881 17.152 31.1149 17.1991C31.1421 17.2307 31.2379 17.3259 31.1557 17.2465C31.1694 17.2623 31.183 17.2781 31.197 17.2785C31.2383 17.3105 31.4021 17.4848 31.3294 17.5755C30.648 18.3442 29.9663 19.1283 29.3675 19.9611C29.2225 20.1269 29.1047 20.3244 29.0005 20.5377L29.003 20.4451C29.0026 20.4605 29.0162 20.4764 29.0158 20.4918C29.0154 20.5072 29.0822 20.6326 29.0418 20.5697C29.1086 20.695 29.1613 20.82 29.2422 20.9457C29.3362 21.1027 29.4443 21.26 29.5672 21.3869C29.6766 21.498 29.8 21.6094 29.9242 21.69C30.1042 21.7876 30.2854 21.8389 30.4815 21.8597C30.7622 21.8674 31.0447 21.8134 31.3003 21.7123C31.4568 21.6394 31.567 21.7196 31.7202 21.7701C31.9146 21.8526 32.1235 21.9201 32.3187 21.9718C33.0028 22.1295 33.7574 22.2736 34.4508 22.0919C34.6056 22.0807 34.7583 22.1467 34.8672 22.2732C34.9085 22.3052 35.1123 22.5578 34.9711 22.5848C34.2778 22.7665 33.5499 22.6694 32.8663 22.4962C32.4753 22.4083 32.0997 22.2745 31.7249 22.1099L31.907 22.1303C31.1958 22.4505 30.3973 22.3668 29.7494 21.9168C29.281 21.5798 28.8862 21.1212 28.6057 20.5886C28.5389 20.4633 28.4721 20.3379 28.4338 20.1979C28.3959 20.0425 28.5554 19.8616 28.629 19.7401C29.0088 19.2102 29.4021 18.696 29.8228 18.2135C30.1277 17.8513 30.4471 17.4741 30.7656 17.1277L30.8984 17.4093C30.3228 16.884 30.0657 16.0124 30.3816 15.2491C30.5334 14.8364 30.8511 14.5209 31.2471 14.4237C32.0511 14.3068 32.7786 14.9288 32.8808 15.8116C32.8906 15.9663 32.9009 16.1055 32.8686 16.259L32.5001 15.863L32.5699 15.8803C32.5142 15.8634 32.5282 15.8637 32.598 15.8811L32.7094 15.915C32.9187 15.9671 33.1284 16.0037 33.3386 16.0249C33.9414 16.0723 34.562 15.9812 35.0779 15.6094C35.4369 15.3259 35.7142 14.9475 35.8808 14.5043C35.9114 14.4125 36.0918 14.4947 36.1335 14.5113C36.2586 14.561 36.3543 14.6563 36.4352 14.782C36.7135 15.3917 37.0488 15.9721 37.4279 16.492C37.55 16.6497 37.7295 16.7627 37.6811 16.993C37.6483 17.1619 37.6301 17.3158 37.5974 17.4847C37.3373 18.7745 37.0061 20.0931 36.3708 21.2336C36.0459 21.8114 35.5938 22.4166 34.9711 22.5848C34.8163 22.596 34.6631 22.5455 34.5542 22.419C34.5133 22.3715 34.3091 22.1344 34.4508 22.0919Z" fill="#000005"/>
<path d="M32.3813 18.1446C32.3813 18.1446 31.4134 19.1216 32.3748 19.4104L32.3813 18.1446Z" fill="white"/>
<path d="M32.643 18.3371C32.6285 18.3521 32.5996 18.3822 32.5852 18.3973L32.6145 18.3518L32.6 18.3668L32.5707 18.4123C32.5418 18.4424 32.5269 18.4729 32.498 18.503C32.4397 18.5786 32.3955 18.6545 32.3513 18.7305C32.3215 18.7915 32.3666 18.6846 32.3661 18.7C32.3657 18.7155 32.3517 18.7151 32.3513 18.7305L32.3355 18.7918C32.3202 18.8377 32.3049 18.8836 32.3036 18.9299L32.3058 18.8528C32.3041 18.9145 32.3028 18.9608 32.3151 19.0229L32.3032 18.9453C32.3164 18.9766 32.3296 19.0078 32.3428 19.0391C32.3164 18.9766 32.3024 18.9762 32.3296 19.0078L32.3432 19.0236C32.3705 19.0553 32.4117 19.0873 32.3292 19.0233C32.3428 19.0391 32.3564 19.0549 32.3845 19.0556C32.4126 19.0564 32.4955 19.105 32.3981 19.0715C32.4534 19.1038 32.5091 19.1208 32.5649 19.1378C32.6904 19.1721 32.7712 19.2978 32.7393 19.4359C32.7385 19.4668 32.724 19.4818 32.7091 19.5123C32.5926 19.6635 32.3948 19.7044 32.2281 19.638C32.0328 19.5864 31.8673 19.4738 31.7311 19.3156C31.6367 19.1741 31.586 18.972 31.6332 18.788C31.6966 18.5273 31.8152 18.299 31.9887 18.1185C32.0466 18.0583 32.0908 17.9823 32.1482 17.9376C32.292 17.818 32.4889 17.808 32.6408 17.9048C32.7374 17.9692 32.7752 18.1246 32.7161 18.231C32.6723 18.2916 32.6579 18.3066 32.643 18.3371Z" fill="#000005"/>
<path d="M35.4357 18.4445C35.617 19.0053 35.8689 19.5525 36.1932 20.0246C37.2573 21.6903 36.9584 22.3459 36.3029 22.1736C35.6473 22.0012 34.1045 19.8593 34.1045 19.8593" fill="white"/>
<path d="M35.7892 18.3614C35.9808 19.0614 36.3722 19.6434 36.7352 20.24C36.9509 20.5701 37.1092 20.945 37.211 21.3338C37.2752 21.5517 37.2689 21.7831 37.1792 21.9813C37.0465 22.2093 36.7351 22.2934 36.5097 22.3181C36.2838 22.3582 36.0601 22.3212 35.852 22.2229C35.3815 21.963 34.9879 21.4581 34.6344 21.0316C34.3489 20.6841 34.0634 20.3366 33.8068 19.9591C33.7256 19.8488 34.364 19.6193 34.4585 19.7608C34.9729 20.4696 35.5149 21.1947 36.1599 21.7527C36.2969 21.88 36.4484 21.9922 36.6151 22.0585C36.6568 22.0751 36.6853 22.0604 36.713 22.0766C36.6288 22.0743 36.5581 22.0878 36.4867 22.1322C36.4582 22.1468 36.4437 22.1619 36.4727 22.1318C36.4727 22.1318 36.5165 22.0712 36.5169 22.0558C36.6062 21.873 36.5564 21.64 36.5193 21.4538C36.4167 21.0959 36.2712 20.7677 36.0831 20.4537C35.721 19.8263 35.3159 19.2285 35.1104 18.5281C35.0576 18.4032 35.7373 18.2056 35.7892 18.3614Z" fill="#000005"/>
<path d="M34.8319 17.409C34.9416 17.5047 34.951 17.6747 34.8634 17.7959C34.8489 17.8109 34.8489 17.8109 34.8345 17.8259C34.632 18.0365 34.4006 17.7677 34.5196 17.524C34.5651 17.4017 34.6932 17.3435 34.7902 17.3924C34.8042 17.3928 34.8178 17.4086 34.8319 17.409Z" fill="#000005"/>
<path d="M36.4774 18.365C36.5872 18.4606 36.6106 18.6311 36.523 18.7522C36.5085 18.7672 36.5085 18.7672 36.4941 18.7823C36.2916 18.9928 36.0461 18.7237 36.1792 18.4803C36.2247 18.358 36.3528 18.2998 36.4498 18.3488C36.4638 18.3491 36.4634 18.3646 36.4774 18.365Z" fill="#000005"/>
<path d="M30.0283 16.8606C29.4482 17.524 28.8404 18.1712 28.2195 18.7872C28.1327 18.8774 27.9184 19.0105 27.7937 18.9454C27.6691 18.8802 27.8571 18.6846 27.9009 18.6241L28.1178 18.3984L28.1611 18.3533L28.2045 18.3082C28.1901 18.3232 28.2334 18.2781 28.2334 18.2781L28.2913 18.2179C28.4359 18.0675 28.5805 17.9171 28.7251 17.7666C29.0143 17.4658 29.2899 17.1491 29.5795 16.8328C29.6956 16.6971 29.8526 16.6087 30.0215 16.5979C30.1754 16.6176 30.0866 16.785 30.0283 16.8606Z" fill="#000005"/>
<path d="M28.1922 16.7022L26.8996 17.2225C26.8145 17.2511 26.7298 17.2642 26.646 17.2465C26.5903 17.2295 26.521 17.1967 26.5086 17.1346C26.4712 16.9638 26.6711 16.8458 26.7846 16.8025L28.0773 16.2822C28.1624 16.2536 28.247 16.2405 28.3308 16.2582C28.3865 16.2752 28.4559 16.308 28.4682 16.3701C28.4921 16.5251 28.3062 16.6435 28.1922 16.7022Z" fill="#000005"/>
<path d="M29.1277 14.3502C29.155 14.3818 29.1822 14.4134 29.2235 14.4454L29.2784 14.4933C29.2924 14.4936 29.3337 14.5256 29.2924 14.4936C29.2511 14.4616 29.2924 14.4936 29.3064 14.494C29.4302 14.59 29.5685 14.671 29.7072 14.7366C29.7906 14.7697 29.8595 14.8179 29.9429 14.8511C29.9846 14.8677 30.0262 14.8843 30.0539 14.9005L30.1232 14.9332C30.1373 14.9336 30.1926 14.966 30.1509 14.9494C30.1092 14.9329 30.1649 14.9498 30.1785 14.9656L30.2483 14.983L30.3598 15.0169C30.4436 15.0347 30.5274 15.0524 30.6112 15.0701C30.7647 15.1052 30.8728 15.2626 30.8401 15.4315C30.8397 15.4469 30.8393 15.4623 30.8244 15.4928C30.7491 15.676 30.5773 15.7948 30.3956 15.759C30.0179 15.7023 29.6703 15.5693 29.3381 15.3903C29.1994 15.3248 29.0615 15.2284 28.9373 15.1478C28.8267 15.083 28.731 14.9877 28.6352 14.8925C28.5808 14.8292 28.5412 14.7355 28.5437 14.643C28.5463 14.5504 28.5909 14.459 28.6628 14.3992C28.7649 14.263 29.006 14.177 29.1277 14.3502Z" fill="#000005"/>
<path d="M21.9152 24.8208C21.9152 24.8208 29.5971 17.2192 31.6852 20.9972C32.903 23.2074 31.6738 31.1556 31.6738 31.1556C31.6738 31.1556 21.7528 25.1097 21.9152 24.8208Z" fill="#000005"/>
<path d="M21.6101 24.6734C22.2889 23.9973 23.0085 23.3686 23.755 22.7869C25.0909 21.7119 26.5387 20.6554 28.1142 20.0656C28.8097 19.8067 29.5588 19.642 30.2858 19.77C30.9992 19.8821 31.6331 20.3318 32.0084 20.9905C32.3969 21.6805 32.4846 22.5783 32.5333 23.367C32.5883 24.4338 32.5868 25.5145 32.5156 26.5778C32.4312 28.1194 32.2626 29.6587 32.0383 31.1809C32.0374 31.2118 32.037 31.2272 32.0221 31.2577C31.9877 31.4883 31.5708 31.3225 31.4742 31.2581C30.3413 30.5632 29.2084 29.8683 28.0759 29.158C26.3078 28.0597 24.5257 26.961 22.8022 25.7714C22.5265 25.5785 22.2368 25.3853 21.9616 25.1771C21.879 25.1131 21.5204 24.8717 21.5952 24.7039C21.7147 24.4447 22.3822 24.6946 22.264 24.9075C22.2784 24.8924 22.2384 24.8141 22.252 24.83C22.2252 24.7829 22.2108 24.7979 22.2661 24.8303L22.3346 24.894C22.2388 24.7987 22.3758 24.926 22.4035 24.9422C22.6375 25.1184 22.8855 25.295 23.1199 25.4558C23.8921 25.9865 24.6651 26.4863 25.4522 26.9864C27.1917 28.0994 28.9462 29.1818 30.7007 30.2643L31.9025 31.0074L31.3546 31.0078C31.5433 29.7625 31.6758 28.5155 31.7802 27.2679C31.8647 26.2358 31.9074 25.1871 31.8941 24.1369C31.876 23.2564 31.8448 22.3447 31.6014 21.4888C31.5635 21.3334 31.5111 21.193 31.4307 21.0519C31.3643 20.9111 31.2835 20.7854 31.1886 20.6593C31.1482 20.5964 31.0933 20.5486 31.0384 20.5008L30.9563 20.4213C31.0112 20.4692 30.915 20.3893 30.901 20.3889C30.8869 20.3886 30.8457 20.3565 30.8185 20.3249L30.7631 20.2925C30.8325 20.3253 30.7219 20.2605 30.7631 20.2925L30.6802 20.2439C30.6525 20.2277 30.5551 20.1942 30.6385 20.2274C30.5692 20.1946 30.4994 20.1772 30.4296 20.1599C30.3599 20.1425 30.4577 20.1607 30.4015 20.1591C30.3454 20.1576 30.3177 20.1414 30.2756 20.1402L30.1497 20.1213L30.0936 20.1198L30.1076 20.1202C30.0234 20.1179 29.9391 20.1156 29.869 20.1136C29.7988 20.1117 29.7141 20.1248 29.6439 20.1229C29.7001 20.1245 29.5874 20.1368 29.5733 20.1364L29.4181 20.1631C29.2488 20.1893 29.0786 20.2464 28.9089 20.2881C28.1577 20.5299 27.4457 20.881 26.7596 21.3099C26.0451 21.7535 25.3577 22.2287 24.6972 22.751C23.85 23.4225 23.0436 24.1415 22.2508 24.8762L22.2078 24.9059C22.0466 25.1485 21.4085 24.8532 21.6101 24.6734Z" fill="#000005"/>
<path d="M27.4117 28.7848L27.8902 26.1887L32.0677 27.0288L31.7303 31.6512" fill="white"/>
<path d="M27.1225 28.5762L27.601 25.9801L27.6151 25.9805L31.2756 26.7138L31.8065 26.821C31.932 26.8553 32.0567 26.9205 32.1524 27.0157C32.2073 27.0635 32.3872 27.1611 32.3707 27.2533L32.0634 31.2898L32.0193 31.8753C32.018 31.9216 31.7142 31.728 31.6866 31.7118C31.6317 31.664 31.4101 31.5498 31.4266 31.4577L31.7339 27.4211L31.778 26.8356L32.3426 27.2525L29.5903 26.6985L28.249 26.4302C28.2349 26.4298 28.1796 26.3974 28.1652 26.4125C28.1937 26.3978 28.1631 26.4896 28.1626 26.505L28.0148 27.2883L27.7011 28.9935C27.6858 29.0394 27.3961 28.8462 27.3684 28.83C27.3272 28.7979 27.1064 28.653 27.1225 28.5762Z" fill="#000005"/>
<path d="M15.6551 31.7975C13.7985 32.9045 11.5159 33.1508 9.57556 32.1867C7.85728 31.3214 6.56807 29.665 6.06066 27.6749C5.92104 27.1307 5.81245 26.4793 6.03781 25.9451C6.24829 25.4414 6.74891 25.1155 7.22999 24.9897C7.62601 24.8925 8.01568 25.0267 8.21484 25.449C8.38634 25.8551 8.35962 26.3175 8.12445 26.6971C7.84463 27.168 7.40059 27.48 6.94462 27.7146C6.47419 27.9641 5.97738 28.1512 5.45418 28.2759C4.47797 28.527 3.46894 28.4376 2.53856 28.0416C1.71963 27.6795 1.06442 26.9822 0.695455 26.0921C0.338837 25.2641 0.280814 24.3053 0.557583 23.4329C0.633689 23.2188 0.723835 23.0051 0.841208 22.8231C0.942854 22.7024 1.07172 22.6133 1.21337 22.5708C1.24187 22.5562 1.53878 22.4871 1.48051 22.5627C0.61256 23.9902 1.06382 25.9787 2.18659 27.0439C2.84434 27.6486 3.67773 27.9956 4.53361 28.0345C5.34695 28.0876 6.23597 27.9422 6.95096 27.4832C7.30782 27.2768 7.55618 26.9285 7.65224 26.4989C7.71853 26.1301 7.6168 25.7414 7.35684 25.4872C7.28835 25.4236 7.20539 25.375 7.12158 25.3573C7.09393 25.3411 6.88463 25.289 6.86933 25.3349C6.83872 25.4267 6.98501 25.2146 6.91144 25.3361C6.89698 25.3511 6.85402 25.3808 6.83914 25.4113C6.75238 25.5016 6.69285 25.6234 6.64777 25.7303C6.45091 26.2498 6.54716 26.8391 6.67359 27.3521C7.1163 29.1396 8.18471 30.651 9.64861 31.5712C11.361 32.6525 13.633 32.7919 15.4036 31.7443C15.4751 31.6999 15.7465 31.5375 15.829 31.6015C15.9115 31.6655 15.698 31.7678 15.6551 31.7975Z" fill="#B8956A"/>
</svg>
